HIERARCHY
ROOT Hips
{
	OFFSET 0.00000 0.00000 0.00000
	CHANNELS 6 Xposition Yposition Zposition Zrotation Yrotation Xrotation 
	JOINT LHipJoint
	{
		OFFSET 0 0 0
		CHANNELS 3 Zrotation Yrotation Xrotation
		JOINT LeftHip
		{
			OFFSET 1.76014 -1.80163 0.38499
			CHANNELS 3 Zrotation Yrotation Xrotation
			JOINT LeftKnee
			{
				OFFSET 2.46817 -6.78126 0.00000
				CHANNELS 3 Zrotation Yrotation Xrotation
				JOINT LeftAnkle
				{
					OFFSET 2.79348 -7.67503 0.00000
					CHANNELS 3 Zrotation Yrotation Xrotation
					JOINT LeftToe
					{
						OFFSET 0.09421 -0.25885 1.91403
						CHANNELS 3 Zrotation Yrotation Xrotation
						End Site
						{
							OFFSET 0.00000 -0.00000 0.97975
						}
					}
				}
			}
		}
	}
	JOINT RHipJoint
	{
		OFFSET 0 0 0
		CHANNELS 3 Zrotation Yrotation Xrotation
		JOINT RightHip
		{
			OFFSET -1.77926 -1.80163 0.38499
			CHANNELS 3 Zrotation Yrotation Xrotation
			JOINT RightKnee
			{
				OFFSET -2.51996 -6.92353 0.00000
				CHANNELS 3 Zrotation Yrotation Xrotation
				JOINT RightAnkle
				{
					OFFSET -2.76109 -7.58603 0.00000
					CHANNELS 3 Zrotation Yrotation Xrotation
					JOINT RightToe
					{
						OFFSET -0.08067 -0.22163 1.86812
						CHANNELS 3 Zrotation Yrotation Xrotation
						End Site
						{
							OFFSET -0.00000 -0.00000 0.95558
						}
					}
				}
			}
		}
	}
	JOINT lowerback
	{
		OFFSET 0 0 0
		CHANNELS 3 Zrotation Yrotation Xrotation
		JOINT Chest
		{
			OFFSET 0.05537 1.92033 -0.03713
			CHANNELS 3 Zrotation Yrotation Xrotation
			JOINT Chest2
			{
				OFFSET 0.04452 1.90073 0.10860
				CHANNELS 3 Zrotation Yrotation Xrotation
				JOINT lowerneck
				{
					OFFSET 0 0 0
					CHANNELS 3 Zrotation Yrotation Xrotation
					JOINT Neck
					{
						OFFSET 0.00903 1.74649 0.02074
						CHANNELS 3 Zrotation Yrotation Xrotation
						JOINT Head
						{
							OFFSET -0.08608 1.67844 -0.12081
							CHANNELS 3 Zrotation Yrotation Xrotation
							End Site
							{
								OFFSET -0.03521 1.83380 -0.05059
							}
						}
					}
				}
				JOINT LeftCollar
				{
					OFFSET 0 0 0
					CHANNELS 3 Zrotation Yrotation Xrotation
					JOINT LeftShoulder
					{
						OFFSET 3.28197 0.84325 -0.19106
CHANNELS 3 Zrotation Xrotation Yrotation
						JOINT LeftElbow
						{
OFFSET 0 -5.243180 -0.000000
CHANNELS 3 Zrotation Xrotation Yrotation
							JOINT LeftWrist
							{
OFFSET 0 -2.989990 0.000000
CHANNELS 3 Zrotation Xrotation Yrotation
								JOINT lhand
								{
									OFFSET 0 0 0
CHANNELS 3 Zrotation Xrotation Yrotation
									JOINT LFingers
									{
OFFSET 0 -0.726740 0.000000
CHANNELS 3 Zrotation Xrotation Yrotation
										End Site
										{
OFFSET 0 -0.585920 0.000000
										}
									}
								}
								JOINT LThumb
								{
OFFSET 0 0.000000 0.000000
CHANNELS 3 Zrotation Xrotation Yrotation
									End Site
									{
OFFSET 0 -0.594870 0.594870
									}
								}
							}
						}
					}
				}
				JOINT RightCollar
				{
					OFFSET 0 0 0
					CHANNELS 3 Zrotation Yrotation Xrotation
					JOINT RightShoulder
					{
						OFFSET -3.30963 0.78377 0.14264
CHANNELS 3 Zrotation Xrotation Yrotation
						JOINT RightElbow
						{
OFFSET 0 -5.370450 0.000000
CHANNELS 3 Zrotation Xrotation Yrotation
							JOINT RightWrist
							{
OFFSET 0 -2.927920 0.000000
CHANNELS 3 Zrotation Xrotation Yrotation
								JOINT rhand
								{
									OFFSET 0 0 0
CHANNELS 3 Zrotation Xrotation Yrotation
									JOINT RFingers
									{
OFFSET 0 -0.784500 0.000000
CHANNELS 3 Zrotation Xrotation Yrotation
										End Site
										{
OFFSET 0 -0.632480 0.000000
										}
									}
								}
								JOINT RThumb
								{
OFFSET 0 0.000000 0.000000
CHANNELS 3 Zrotation Xrotation Yrotation
									End Site
									{
OFFSET 0 -0.642140 0.642140
									}
								}
							}
						}
					}
				}
			}
		}
	}
}
MOTION
Frames: 7
Frame Time: 0.008333333333333333
2.494655 16.290938 -1.690842 -0.502278 -24.482408 13.885504 0.000000 0.000000 0.000000 -23.035018 2.168006 -53.942027 10.018315 17.420185 59.549618 1.009708 4.645082 -21.199346 0.223638 -3.044220 -8.401841 0.000000 0.000000 0.000000 3.262435 21.661595 -52.672899 -7.137396 -15.446558 49.392226 0.002195 5.050680 -3.463640 -1.845185 8.535819 -24.353815 3.073942 -0.702034 27.062118 1.411656 -0.471034 13.197128 -0.094574 -0.277569 -0.254821 1.975372 1.934873 -0.979849 -9.058361 1.064522 -20.397486 -3.264151 0.947767 -5.896388 0.000000 0.000000 0.000000 0.510790 -34.808744 -59.237227 140.214961 -47.942028 101.720527 -0.689598 26.257378 -28.462860 0.000000 0.000000 0.000000 -7.125000 0.000000 0.000000 -33.105079 55.179575 8.996788 0.000000 0.000000 0.000000 -1.931795 -36.649697 52.559144 -135.875113 -50.332474 -98.436940 -15.700103 30.398212 -6.583321 0.000000 0.000000 0.000000 7.125000 0.000000 0.000000 8.126868 23.159386 4.317873
2.425312 16.335142 -1.695505 0.524620 -23.311116 13.909734 0.000000 0.000000 0.000000 -23.872364 1.702313 -53.701651 9.728838 17.254585 58.578276 0.965889 4.034218 -20.439825 0.247803 -3.202786 -8.843813 0.000000 0.000000 0.000000 2.640601 20.373386 -52.998312 -7.178846 -15.480630 49.547531 -0.006489 5.086446 -3.772668 -1.647742 8.089995 -22.987929 2.390163 -0.681148 26.596071 1.251011 -0.575837 12.842817 0.144211 -0.342744 -0.445929 1.797076 1.789795 -1.022593 -8.659459 0.969484 -19.842781 -3.088819 0.879279 -5.727290 0.000000 0.000000 0.000000 1.584504 -35.856277 -58.788771 140.108133 -48.005741 101.641185 -0.813771 26.686244 -27.836342 0.000000 0.000000 0.000000 -7.125000 0.000000 0.000000 -32.740469 54.629044 8.421127 0.000000 0.000000 0.000000 -0.804797 -36.054452 53.574358 -136.044492 -50.246438 -98.567275 -12.805149 30.800913 -6.401586 0.000000 0.000000 0.000000 7.125000 0.000000 0.000000 10.257474 23.435346 5.415929
2.332214 16.294651 -1.708540 -0.673541 -22.364118 13.949217 0.000000 0.000000 0.000000 -22.154751 1.982493 -53.968869 10.074812 17.451685 59.738043 1.024075 3.388033 -20.620659 0.287987 -3.450694 -9.536170 0.000000 0.000000 0.000000 4.654993 19.645365 -52.782560 -7.363771 -15.630692 50.237137 -0.008744 5.432708 -4.068299 -1.287528 7.188187 -20.274924 3.004691 -0.635388 26.597052 1.525410 -0.364912 12.839300 0.037458 -0.220243 -0.442039 1.948836 1.728603 -1.368359 -8.439876 0.929932 -19.859305 -3.039453 0.827736 -5.676373 0.000000 0.000000 0.000000 1.721132 -36.767358 -58.881790 139.986613 -48.077776 101.550795 -1.776368 26.424320 -27.928003 0.000000 0.000000 0.000000 -7.125000 0.000000 0.000000 -33.703824 54.524373 8.623710 0.000000 0.000000 0.000000 0.267730 -36.143511 54.251472 -135.974520 -50.282032 -98.513466 -10.032848 33.126980 -5.726584 0.000000 0.000000 0.000000 7.125000 0.000000 0.000000 12.336415 24.171753 6.344662
2.258329 16.203504 -1.723387 -0.609606 -21.647804 13.234276 0.000000 0.000000 0.000000 -21.666159 1.784345 -53.890566 10.488209 17.675359 61.107859 1.084311 3.111676 -21.020700 0.332379 -3.704990 -10.248157 0.000000 0.000000 0.000000 5.238639 18.643629 -53.132169 -7.861976 -16.016764 52.064035 -0.017210 5.977675 -4.653048 -1.254994 7.100404 -20.013908 2.871458 -0.682910 26.790772 1.442846 -0.453091 13.038705 0.047690 -0.263409 -0.309998 2.048273 1.645751 -1.537360 -8.518949 0.802840 -19.887453 -3.075468 0.760445 -5.661334 0.000000 0.000000 0.000000 1.128986 -37.082069 -58.545024 139.591842 -48.309899 101.256513 -1.948648 27.128693 -28.340863 0.000000 0.000000 0.000000 -7.125000 0.000000 0.000000 -34.182245 54.835692 9.042720 0.000000 0.000000 0.000000 0.420661 -37.588071 55.071681 -137.756990 -49.343951 -99.875234 -1.546103 33.628139 -1.092928 0.000000 0.000000 0.000000 7.125000 0.000000 0.000000 19.210965 28.620545 8.082313
2.183308 16.119119 -1.737541 -0.380621 -21.160222 12.316933 0.000000 0.000000 0.000000 -21.394435 1.788188 -53.641183 10.865710 17.868708 62.344572 1.116894 3.000876 -21.253139 0.382141 -3.970061 -10.992507 0.000000 0.000000 0.000000 5.402602 18.352775 -53.115086 -8.335842 -16.360824 53.763525 -0.045431 6.152928 -5.447728 -1.236874 7.052309 -19.870527 2.606022 -0.636086 27.178774 1.404727 -0.462058 13.496889 0.161788 -0.277134 0.028199 2.009144 1.463211 -1.715201 -8.585962 0.552781 -19.620785 -3.073245 0.636268 -5.561160 0.000000 0.000000 0.000000 0.378459 -37.166245 -58.302191 139.574743 -48.319863 101.243767 -1.328933 27.183614 -28.716334 0.000000 0.000000 0.000000 -7.125000 0.000000 0.000000 -33.901438 55.267457 9.328399 0.000000 0.000000 0.000000 0.647782 -38.821596 54.719749 -139.922060 -48.115782 -101.502658 10.813411 33.161538 1.588588 0.000000 0.000000 0.000000 7.125000 0.000000 0.000000 28.771741 30.542982 11.510068
2.118635 16.076423 -1.754811 -0.708057 -20.683934 12.210955 0.000000 0.000000 0.000000 -20.686107 1.757634 -53.900198 11.124561 17.995514 63.185533 1.132572 2.981025 -21.381161 0.454337 -4.323089 -11.987523 0.000000 0.000000 0.000000 5.998966 18.282348 -53.168781 -8.529237 -16.495053 54.447392 -0.069228 6.015585 -5.916485 -1.225435 7.020914 -19.777452 2.924207 -0.792079 27.284597 1.502502 -0.593945 13.809614 0.121373 -0.328941 0.335654 1.850358 1.481245 -1.552065 -8.504762 0.604944 -19.395821 -3.019369 0.669659 -5.518044 0.000000 0.000000 0.000000 0.146590 -37.742826 -57.477632 139.847892 -48.159751 101.447559 -0.981103 27.379362 -28.485349 0.000000 0.000000 0.000000 -7.125000 0.000000 0.000000 -33.395094 55.141928 9.057821 0.000000 0.000000 0.000000 0.791917 -39.674416 54.689635 -141.587109 -47.100928 -102.732571 19.428218 32.413016 1.975636 0.000000 0.000000 0.000000 7.125000 0.000000 0.000000 34.619553 30.180160 15.178973
2.057992 16.120634 -1.774167 -1.254545 -20.352242 12.224989 0.000000 0.000000 0.000000 -19.916176 1.941423 -53.552462 10.970309 17.920415 62.684998 1.114628 2.808047 -21.137812 0.448963 -4.298500 -11.918069 0.000000 0.000000 0.000000 7.023427 18.222591 -52.464912 -8.347090 -16.368687 53.803405 -0.078772 5.550172 -5.917829 -1.314963 7.262439 -20.495676 3.220210 -0.758415 27.812283 1.846789 -0.469007 14.064185 0.300673 -0.269973 0.393624 1.530990 1.479310 -1.533083 -8.340921 0.601724 -19.624271 -2.917631 0.685542 -5.598282 0.000000 0.000000 0.000000 -0.031518 -39.654885 -56.879902 141.189465 -47.349004 102.440622 -0.569705 27.152346 -28.700386 0.000000 0.000000 0.000000 -7.125000 0.000000 0.000000 -33.178832 55.401934 9.208068 0.000000 0.000000 0.000000 0.406895 -40.170647 54.369554 -142.192887 -46.715689 -103.174925 19.651864 30.203997 1.883457 0.000000 0.000000 0.000000 7.125000 0.000000 0.000000 34.727436 30.076422 15.358299
